<svg width="46" height="15" viewBox="0 0 46 15" fill="none" xmlns="http://www.w3.org/2000/svg">
<path d="M7.584 14.192C6.272 14.192 5.088 13.912 4.032 13.352C2.992 12.792 2.168 11.992 1.56 10.952C0.968 9.912 0.672 8.696 0.672 7.304C0.672 5.928 0.976 4.72 1.584 3.68C2.192 2.624 3.024 1.816 4.08 1.256C5.136 0.695999 6.32 0.415999 7.632 0.415999C8.944 0.415999 10.128 0.695999 11.184 1.256C12.24 1.816 13.072 2.624 13.68 3.68C14.288 4.72 14.592 5.928 14.592 7.304C14.592 8.68 14.28 9.896 13.656 10.952C13.048 11.992 12.208 12.792 11.136 13.352C10.08 13.912 8.896 14.192 7.584 14.192ZM7.584 10.64C8.368 10.64 9.032 10.352 9.576 9.776C10.136 9.2 10.416 8.376 10.416 7.304C10.416 6.232 10.144 5.408 9.6 4.832C9.072 4.256 8.416 3.968 7.632 3.968C6.832 3.968 6.168 4.256 5.64 4.832C5.112 5.392 4.848 6.216 4.848 7.304C4.848 8.376 5.104 9.2 5.616 9.776C6.144 10.352 6.8 10.64 7.584 10.64ZM22.8653 14.192C21.5533 14.192 20.3693 13.912 19.3133 13.352C18.2733 12.792 17.4493 11.992 16.8413 10.952C16.2493 9.912 15.9533 8.696 15.9533 7.304C15.9533 5.928 16.2573 4.72 16.8652 3.68C17.4733 2.624 18.3053 1.816 19.3613 1.256C20.4173 0.695999 21.6013 0.415999 22.9133 0.415999C24.2253 0.415999 25.4093 0.695999 26.4653 1.256C27.5213 1.816 28.3533 2.624 28.9613 3.68C29.5693 4.72 29.8733 5.928 29.8733 7.304C29.8733 8.68 29.5613 9.896 28.9373 10.952C28.3293 11.992 27.4893 12.792 26.4173 13.352C25.3613 13.912 24.1773 14.192 22.8653 14.192ZM22.8653 10.64C23.6493 10.64 24.3133 10.352 24.8573 9.776C25.4173 9.2 25.6973 8.376 25.6973 7.304C25.6973 6.232 25.4253 5.408 24.8813 4.832C24.3533 4.256 23.6973 3.968 22.9133 3.968C22.1133 3.968 21.4493 4.256 20.9213 4.832C20.3933 5.392 20.1293 6.216 20.1293 7.304C20.1293 8.376 20.3853 9.2 20.8973 9.776C21.4253 10.352 22.0813 10.64 22.8653 10.64ZM38.1465 14.192C36.8345 14.192 35.6505 13.912 34.5945 13.352C33.5545 12.792 32.7305 11.992 32.1225 10.952C31.5305 9.912 31.2345 8.696 31.2345 7.304C31.2345 5.928 31.5385 4.72 32.1465 3.68C32.7545 2.624 33.5865 1.816 34.6425 1.256C35.6985 0.695999 36.8825 0.415999 38.1945 0.415999C39.5065 0.415999 40.6905 0.695999 41.7465 1.256C42.8025 1.816 43.6345 2.624 44.2425 3.68C44.8505 4.72 45.1545 5.928 45.1545 7.304C45.1545 8.68 44.8425 9.896 44.2185 10.952C43.6105 11.992 42.7705 12.792 41.6985 13.352C40.6425 13.912 39.4585 14.192 38.1465 14.192ZM38.1465 10.64C38.9305 10.64 39.5945 10.352 40.1385 9.776C40.6985 9.2 40.9785 8.376 40.9785 7.304C40.9785 6.232 40.7065 5.408 40.1625 4.832C39.6345 4.256 38.9785 3.968 38.1945 3.968C37.3945 3.968 36.7305 4.256 36.2025 4.832C35.6745 5.392 35.4105 6.216 35.4105 7.304C35.4105 8.376 35.6665 9.2 36.1785 9.776C36.7065 10.352 37.3625 10.64 38.1465 10.64Z" fill="white"/>
</svg>
