<svg width="105" height="25" viewBox="0 0 105 25" fill="none" xmlns="http://www.w3.org/2000/svg">
<path d="M8.81818 24.3409C7.05303 24.3409 5.52652 23.9659 4.23864 23.2159C2.95833 22.4583 1.9697 21.4053 1.27273 20.0568C0.575758 18.7008 0.227273 17.1288 0.227273 15.3409C0.227273 13.5379 0.575758 11.9621 1.27273 10.6136C1.9697 9.25758 2.95833 8.20454 4.23864 7.45454C5.52652 6.69697 7.05303 6.31818 8.81818 6.31818C10.5833 6.31818 12.1061 6.69697 13.3864 7.45454C14.6742 8.20454 15.6667 9.25758 16.3636 10.6136C17.0606 11.9621 17.4091 13.5379 17.4091 15.3409C17.4091 17.1288 17.0606 18.7008 16.3636 20.0568C15.6667 21.4053 14.6742 22.4583 13.3864 23.2159C12.1061 23.9659 10.5833 24.3409 8.81818 24.3409ZM8.84091 20.5909C9.64394 20.5909 10.3144 20.3636 10.8523 19.9091C11.3902 19.447 11.7955 18.8182 12.0682 18.0227C12.3485 17.2273 12.4886 16.322 12.4886 15.3068C12.4886 14.2917 12.3485 13.3864 12.0682 12.5909C11.7955 11.7955 11.3902 11.1667 10.8523 10.7045C10.3144 10.2424 9.64394 10.0114 8.84091 10.0114C8.0303 10.0114 7.34848 10.2424 6.79545 10.7045C6.25 11.1667 5.83712 11.7955 5.55682 12.5909C5.28409 13.3864 5.14773 14.2917 5.14773 15.3068C5.14773 16.322 5.28409 17.2273 5.55682 18.0227C5.83712 18.8182 6.25 19.447 6.79545 19.9091C7.34848 20.3636 8.0303 20.5909 8.84091 20.5909ZM28.4432 24.3409C26.678 24.3409 25.1515 23.9659 23.8636 23.2159C22.5833 22.4583 21.5947 21.4053 20.8977 20.0568C20.2008 18.7008 19.8523 17.1288 19.8523 15.3409C19.8523 13.5379 20.2008 11.9621 20.8977 10.6136C21.5947 9.25758 22.5833 8.20454 23.8636 7.45454C25.1515 6.69697 26.678 6.31818 28.4432 6.31818C30.2083 6.31818 31.7311 6.69697 33.0114 7.45454C34.2992 8.20454 35.2917 9.25758 35.9886 10.6136C36.6856 11.9621 37.0341 13.5379 37.0341 15.3409C37.0341 17.1288 36.6856 18.7008 35.9886 20.0568C35.2917 21.4053 34.2992 22.4583 33.0114 23.2159C31.7311 23.9659 30.2083 24.3409 28.4432 24.3409ZM28.4659 20.5909C29.2689 20.5909 29.9394 20.3636 30.4773 19.9091C31.0152 19.447 31.4205 18.8182 31.6932 18.0227C31.9735 17.2273 32.1136 16.322 32.1136 15.3068C32.1136 14.2917 31.9735 13.3864 31.6932 12.5909C31.4205 11.7955 31.0152 11.1667 30.4773 10.7045C29.9394 10.2424 29.2689 10.0114 28.4659 10.0114C27.6553 10.0114 26.9735 10.2424 26.4205 10.7045C25.875 11.1667 25.4621 11.7955 25.1818 12.5909C24.9091 13.3864 24.7727 14.2917 24.7727 15.3068C24.7727 16.322 24.9091 17.2273 25.1818 18.0227C25.4621 18.8182 25.875 19.447 26.4205 19.9091C26.9735 20.3636 27.6553 20.5909 28.4659 20.5909ZM48.0682 24.3409C46.303 24.3409 44.7765 23.9659 43.4886 23.2159C42.2083 22.4583 41.2197 21.4053 40.5227 20.0568C39.8258 18.7008 39.4773 17.1288 39.4773 15.3409C39.4773 13.5379 39.8258 11.9621 40.5227 10.6136C41.2197 9.25758 42.2083 8.20454 43.4886 7.45454C44.7765 6.69697 46.303 6.31818 48.0682 6.31818C49.8333 6.31818 51.3561 6.69697 52.6364 7.45454C53.9242 8.20454 54.9167 9.25758 55.6136 10.6136C56.3106 11.9621 56.6591 13.5379 56.6591 15.3409C56.6591 17.1288 56.3106 18.7008 55.6136 20.0568C54.9167 21.4053 53.9242 22.4583 52.6364 23.2159C51.3561 23.9659 49.8333 24.3409 48.0682 24.3409ZM48.0909 20.5909C48.8939 20.5909 49.5644 20.3636 50.1023 19.9091C50.6402 19.447 51.0455 18.8182 51.3182 18.0227C51.5985 17.2273 51.7386 16.322 51.7386 15.3068C51.7386 14.2917 51.5985 13.3864 51.3182 12.5909C51.0455 11.7955 50.6402 11.1667 50.1023 10.7045C49.5644 10.2424 48.8939 10.0114 48.0909 10.0114C47.2803 10.0114 46.5985 10.2424 46.0455 10.7045C45.5 11.1667 45.0871 11.7955 44.8068 12.5909C44.5341 13.3864 44.3977 14.2917 44.3977 15.3068C44.3977 16.322 44.5341 17.2273 44.8068 18.0227C45.0871 18.8182 45.5 19.447 46.0455 19.9091C46.5985 20.3636 47.2803 20.5909 48.0909 20.5909ZM64.6477 0.727272V24H59.8068V0.727272H64.6477ZM73.5028 24.3295C72.3892 24.3295 71.3968 24.1364 70.5256 23.75C69.6544 23.3561 68.965 22.7765 68.4574 22.0114C67.9574 21.2386 67.7074 20.2765 67.7074 19.125C67.7074 18.1553 67.8854 17.3409 68.2415 16.6818C68.5975 16.0227 69.0824 15.4924 69.696 15.0909C70.3097 14.6894 71.0066 14.3864 71.7869 14.1818C72.5748 13.9773 73.4006 13.8333 74.2642 13.75C75.2794 13.6439 76.0975 13.5455 76.7188 13.4545C77.34 13.3561 77.7907 13.2121 78.071 13.0227C78.3513 12.8333 78.4915 12.553 78.4915 12.1818V12.1136C78.4915 11.3939 78.2642 10.8371 77.8097 10.4432C77.3627 10.0492 76.7263 9.85227 75.9006 9.85227C75.0294 9.85227 74.3362 10.0455 73.821 10.4318C73.3059 10.8106 72.965 11.2879 72.7983 11.8636L68.321 11.5C68.5483 10.4394 68.9953 9.52273 69.6619 8.75C70.3286 7.9697 71.1884 7.37121 72.2415 6.95454C73.3021 6.5303 74.5294 6.31818 75.9233 6.31818C76.893 6.31818 77.821 6.43182 78.7074 6.65909C79.6013 6.88636 80.393 7.23864 81.0824 7.71591C81.7794 8.19318 82.3286 8.80682 82.7301 9.55682C83.1316 10.2992 83.3324 11.1894 83.3324 12.2273V24H78.7415V21.5795H78.6051C78.3248 22.125 77.9498 22.6061 77.4801 23.0227C77.0104 23.4318 76.446 23.7538 75.7869 23.9886C75.1278 24.2159 74.3665 24.3295 73.5028 24.3295ZM74.8892 20.9886C75.6013 20.9886 76.2301 20.8485 76.7756 20.5682C77.321 20.2803 77.7491 19.8939 78.0597 19.4091C78.3703 18.9242 78.5256 18.375 78.5256 17.7614V15.9091C78.3741 16.0076 78.1657 16.0985 77.9006 16.1818C77.643 16.2576 77.3513 16.3295 77.0256 16.3977C76.6998 16.4583 76.3741 16.5152 76.0483 16.5682C75.7225 16.6136 75.4271 16.6553 75.1619 16.6932C74.5938 16.7765 74.0975 16.9091 73.6733 17.0909C73.2491 17.2727 72.9195 17.5189 72.6847 17.8295C72.4498 18.1326 72.3324 18.5114 72.3324 18.9659C72.3324 19.625 72.571 20.1288 73.0483 20.4773C73.5331 20.8182 74.1468 20.9886 74.8892 20.9886ZM87.179 24V0.727272H92.0199V9.47727H92.1676C92.3797 9.00758 92.6866 8.5303 93.0881 8.04545C93.4972 7.55303 94.0275 7.14394 94.679 6.81818C95.3381 6.48485 96.1563 6.31818 97.1335 6.31818C98.4063 6.31818 99.5805 6.65152 100.656 7.31818C101.732 7.97727 102.592 8.97348 103.236 10.3068C103.88 11.6326 104.202 13.2955 104.202 15.2955C104.202 17.2424 103.887 18.8864 103.259 20.2273C102.637 21.5606 101.789 22.572 100.713 23.2614C99.6449 23.9432 98.4479 24.2841 97.1222 24.2841C96.1828 24.2841 95.3835 24.1288 94.7244 23.8182C94.0729 23.5076 93.5388 23.1174 93.1222 22.6477C92.7055 22.1705 92.3873 21.6894 92.1676 21.2045H91.9517V24H87.179ZM91.9176 15.2727C91.9176 16.3106 92.0616 17.2159 92.3494 17.9886C92.6373 18.7614 93.054 19.3636 93.5994 19.7955C94.1449 20.2197 94.8078 20.4318 95.5881 20.4318C96.3759 20.4318 97.0426 20.2159 97.5881 19.7841C98.1335 19.3447 98.5464 18.7386 98.8267 17.9659C99.1146 17.1856 99.2585 16.2879 99.2585 15.2727C99.2585 14.2652 99.1184 13.3788 98.8381 12.6136C98.5578 11.8485 98.1449 11.25 97.5994 10.8182C97.054 10.3864 96.3835 10.1705 95.5881 10.1705C94.8002 10.1705 94.1335 10.3788 93.5881 10.7955C93.0502 11.2121 92.6373 11.803 92.3494 12.5682C92.0616 13.3333 91.9176 14.2348 91.9176 15.2727Z" fill="white"/>
</svg>
